<svg xmlns="http://www.w3.org/2000/svg" viewBox="200 200 600 600"><linearGradient id="a" gradientUnits="userSpaceOnUse" x1="262.693" y1="500" x2="737.307" y2="500"><stop offset="0" stop-color="#0072ff"/><stop offset="1" stop-color="#0037ff"/></linearGradient><path fill="none" stroke="url(#a)" stroke-width="20" stroke-miterlimit="10" d="M727.307 500c0 125.538-101.766 227.308-227.307 227.308-125.537 0-227.307-101.77-227.307-227.308 0-125.54 101.77-227.308 227.307-227.308 125.541 0 227.307 101.768 227.307 227.308z"/><linearGradient id="b" gradientUnits="userSpaceOnUse" x1="419.445" y1="559.767" x2="512.079" y2="534.396"><stop offset="0" stop-color="#0072ff"/><stop offset="1" stop-color="#0037ff"/></linearGradient><path fill="url(#b)" d="M481.441 485.241c-.027.079-.049.133-.049.133-106.734-7.911-43.482 132.428-43.482 132.428 1.979-31.625 43.482-48.446 43.482-48.446 45.758-27.667 19.801-69.057 17.902-71.956-6.276-2.25-12.888-5.985-17.853-12.159z"/><linearGradient id="c" gradientUnits="userSpaceOnUse" x1="473.903" y1="444.195" x2="590.283" y2="412.32"><stop offset="0" stop-color="#0072ff"/><stop offset="1" stop-color="#0037ff"/></linearGradient><path fill="url(#c)" d="M504.215 492.416c21.658-21.045 104.322-104.94 68.104-125.639-36.379-20.788-78.83 85.947-88.766 112.649 5.103 4.775 12.129 9.994 20.662 12.99z"/></svg>