<?xml version="1.0" encoding="utf-8"?>
<!-- Generator: Adobe Illustrator 16.0.0, SVG Export Plug-In . SVG Version: 6.00 Build 0)  -->
<!DOCTYPE svg PUBLIC "-//W3C//DTD SVG 1.1//EN" "http://www.w3.org/Graphics/SVG/1.1/DTD/svg11.dtd">
<svg version="1.1" id="Layer_1" xmlns="http://www.w3.org/2000/svg" xmlns:xlink="http://www.w3.org/1999/xlink" x="0px" y="0px"
	 width="1000px" height="1000px" viewBox="0 0 1000 1000" enable-background="new 0 0 1000 1000" xml:space="preserve">
<g>
	<linearGradient id="SVGID_1_" gradientUnits="userSpaceOnUse" x1="262.6943" y1="500" x2="737.3057" y2="500">
		<stop  offset="0" style="stop-color:#0072FF"/>
		<stop  offset="1" style="stop-color:#0037FF"/>
	</linearGradient>
	<circle fill="none" stroke="url(#SVGID_1_)" stroke-width="20" stroke-miterlimit="10" cx="500" cy="499.999" r="227.306"/>
	<linearGradient id="SVGID_2_" gradientUnits="userSpaceOnUse" x1="366.8994" y1="506.7988" x2="607.6777" y2="506.7988">
		<stop  offset="0" style="stop-color:#0072FF"/>
		<stop  offset="1" style="stop-color:#0037FF"/>
	</linearGradient>
	<path fill="url(#SVGID_2_)" d="M584.024,428.003c-0.948-0.034-1.899-0.017-2.849-0.017c-55.723,0-111.445,0-167.167,0
		c-1.014,0-2.026,0-3.155,0c-0.732-5.152-1.288-10.093-2.163-14.971c-1.301-7.205-4.312-13.673-10.138-18.269
		c-2.705-2.133-6.185-3.28-9.314-4.881c-5.695,0-11.397,0-17.097,0c-0.387,0.239-0.762,0.496-1.157,0.711
		c-3.058,1.645-4.635,4.816-3.91,7.889c0.788,3.326,3.508,5.569,7.018,5.634c3.64,0.065,7.285,0.15,10.912-0.027
		c2.506-0.121,4.207,0.947,5.714,2.731c3.229,3.816,4.049,8.452,4.672,13.197c2.785,21.079,5.62,42.152,8.423,63.23
		c2.758,20.763,5.504,41.528,8.263,62.294c1.106,8.303,1.922,16.66,3.42,24.896c2.212,12.183,9.765,19.843,21.46,23.562
		c0.502,0.158,145.35,1.035,150.574,0.928c3.98-0.079,6.875-2.756,7.302-6.455c0.372-3.205-1.819-6.563-5.051-7.423
		c-1.27-0.342-2.657-0.325-3.994-0.325c-46.779-0.014-93.56-0.025-140.339,0.009c-5.641,0.003-10.233-2.022-13.422-6.661
		c-1.171-1.701-1.991-3.801-2.409-5.835c-0.757-3.688-1.089-7.462-1.64-11.511c1.352,0,2.362,0,3.371,0
		c45.354,0,90.708,0.011,136.064-0.006c13.322-0.006,24.631-7.641,28.514-19.857c1.563-4.914,2.025-10.213,2.729-15.37
		c2.866-20.999,5.608-42.017,8.447-63.019c0.648-4.819,1.055-9.59-0.506-14.324C603.407,434.447,595.014,428.426,584.024,428.003z
		 M545.79,599.879c6.581,0.02,11.913,5.329,11.931,11.886c0.014,6.594-5.504,12.037-12.131,11.964
		c-6.501-0.074-11.896-5.576-11.813-12.048C533.861,605.101,539.193,599.864,545.79,599.879z M461.774,599.885
		c6.688-0.015,12.062,5.383,11.985,12.041c-0.074,6.509-5.513,11.841-12.039,11.805c-6.554-0.037-11.83-5.383-11.819-11.971
		C449.913,605.129,455.145,599.893,461.774,599.885z M418.07,482.743c-1.564-12.474-3.309-24.924-4.979-37.383
		c-0.127-0.926-0.158-1.865-0.245-2.968c18.762,0,37.323,0,56.286,0c0.947,14.196,1.898,28.411,2.866,42.89
		c-1.105,0-1.877,0-2.649,0c-16.144,0-32.288-0.042-48.432,0.052C418.861,485.345,418.322,484.749,418.07,482.743z M473.364,542.458
		c-14.944,0-29.89-0.042-44.834,0.051c-2.058,0.014-2.59-0.604-2.839-2.604c-1.561-12.465-3.304-24.904-4.977-37.354
		c-0.116-0.858-0.16-1.727-0.263-2.805c17.51,0,34.909,0,52.512,0c0.939,14.121,1.879,28.22,2.851,42.713
		C474.866,542.458,474.112,542.458,473.364,542.458z M522.553,542.306c-10.837,0-21.485,0-32.459,0
		c-0.946-14.149-1.893-28.305-2.846-42.622c12.717,0,25.26,0,38.132,0C524.44,513.872,523.501,528.018,522.553,542.306z
		 M526.364,485.167c-13.473,0-26.653,0-40.083,0c-0.951-14.263-1.894-28.429-2.848-42.767c15.272,0,30.338,0,45.764,0
		C528.258,456.617,527.318,470.77,526.364,485.167z M584.733,518.217c-0.545,4.071-1.022,8.156-1.71,12.205
		c-1.014,5.984-6.65,11.661-12.609,11.833c-11.049,0.318-22.114,0.09-33.58,0.09c0.957-14.335,1.895-28.428,2.842-42.661
		c15.858,0,31.558,0,47.492,0C586.353,505.915,585.555,512.066,584.733,518.217z M593.183,454.702
		c-1.41,10.092-2.691,20.203-4.046,30.456c-16.262,0-32.211,0-48.488,0c0.957-14.307,1.897-28.468,2.857-42.922
		c0.975,0,1.736,0,2.501,0c12.186,0,24.369-0.008,36.551,0.004C590.683,442.248,594.317,446.602,593.183,454.702z"/>
</g>
</svg>
