<svg xmlns="http://www.w3.org/2000/svg" viewBox="200 200 600 600"><linearGradient id="a" gradientUnits="userSpaceOnUse" x1="262.694" y1="500" x2="737.306" y2="500"><stop offset="0" stop-color="#0072ff"/><stop offset="1" stop-color="#0037ff"/></linearGradient><circle fill="none" stroke="url(#a)" stroke-width="20" stroke-miterlimit="10" cx="500" cy="499.999" r="227.306"/><linearGradient id="b" gradientUnits="userSpaceOnUse" x1="366.899" y1="506.799" x2="607.678" y2="506.799"><stop offset="0" stop-color="#0072ff"/><stop offset="1" stop-color="#0037ff"/></linearGradient><path fill="url(#b)" d="M584.024 428.003c-.948-.034-1.899-.017-2.849-.017H410.853c-.732-5.152-1.288-10.093-2.163-14.971-1.301-7.205-4.312-13.673-10.138-18.269-2.705-2.133-6.185-3.28-9.314-4.881h-17.097c-.387.239-.762.496-1.157.711-3.058 1.645-4.635 4.816-3.91 7.889.788 3.326 3.508 5.569 7.018 5.634 3.64.065 7.285.15 10.912-.027 2.506-.121 4.207.947 5.714 2.731 3.229 3.816 4.049 8.452 4.672 13.197 2.785 21.079 5.62 42.152 8.423 63.23 2.758 20.763 5.504 41.528 8.263 62.294 1.106 8.303 1.922 16.66 3.42 24.896 2.212 12.183 9.765 19.843 21.46 23.562.502.158 145.35 1.035 150.574.928 3.98-.079 6.875-2.756 7.302-6.455.372-3.205-1.819-6.563-5.051-7.423-1.27-.342-2.657-.325-3.994-.325-46.779-.014-93.56-.025-140.339.009-5.641.003-10.233-2.022-13.422-6.661-1.171-1.701-1.991-3.801-2.409-5.835-.757-3.688-1.089-7.462-1.64-11.511h3.371c45.354 0 90.708.011 136.064-.006 13.322-.006 24.631-7.641 28.514-19.857 1.563-4.914 2.025-10.213 2.729-15.37 2.866-20.999 5.608-42.017 8.447-63.019.648-4.819 1.055-9.59-.506-14.324-3.189-9.686-11.582-15.707-22.572-16.13zM545.79 599.879c6.581.02 11.913 5.329 11.931 11.886.014 6.594-5.504 12.037-12.131 11.964-6.501-.074-11.896-5.576-11.813-12.048.084-6.58 5.416-11.817 12.013-11.802zm-84.016.006c6.688-.015 12.062 5.383 11.985 12.041-.074 6.509-5.513 11.841-12.039 11.805-6.554-.037-11.83-5.383-11.819-11.971.012-6.631 5.244-11.867 11.873-11.875zM418.07 482.743c-1.564-12.474-3.309-24.924-4.979-37.383-.127-.926-.158-1.865-.245-2.968h56.286c.947 14.196 1.898 28.411 2.866 42.89h-2.649c-16.144 0-32.288-.042-48.432.052-2.056.011-2.595-.585-2.847-2.591zm55.294 59.715c-14.944 0-29.89-.042-44.834.051-2.058.014-2.59-.604-2.839-2.604-1.561-12.465-3.304-24.904-4.977-37.354-.116-.858-.16-1.727-.263-2.805h52.512c.939 14.121 1.879 28.22 2.851 42.713l-2.45-.001zm49.189-.152h-32.459c-.946-14.149-1.893-28.305-2.846-42.622h38.132c-.94 14.188-1.879 28.334-2.827 42.622zm3.811-57.139h-40.083c-.951-14.263-1.894-28.429-2.848-42.767h45.764c-.939 14.217-1.879 28.37-2.833 42.767zm58.369 33.05c-.545 4.071-1.022 8.156-1.71 12.205-1.014 5.984-6.65 11.661-12.609 11.833-11.049.318-22.114.09-33.58.09.957-14.335 1.895-28.428 2.842-42.661h47.492c-.815 6.231-1.613 12.382-2.435 18.533zm8.45-63.515c-1.41 10.092-2.691 20.203-4.046 30.456h-48.488c.957-14.307 1.897-28.468 2.857-42.922h2.501c12.186 0 24.369-.008 36.551.004 8.125.008 11.759 4.362 10.625 12.462z"/></svg>