<svg xmlns="http://www.w3.org/2000/svg"  viewBox="200 200 600 600"><linearGradient id="a" gradientUnits="userSpaceOnUse" x1="262.693" y1="500" x2="737.307" y2="500"><stop offset="0" stop-color="#0072ff"/><stop offset="1" stop-color="#0037ff"/></linearGradient><circle fill="none" stroke="url(#a)" stroke-width="20" stroke-miterlimit="10" cx="500" cy="499.999" r="227.307"/><linearGradient id="b" gradientUnits="userSpaceOnUse" x1="351.847" y1="563.293" x2="597.934" y2="500.951"><stop offset="0" stop-color="#0072ff"/><stop offset="1" stop-color="#0037ff"/></linearGradient><path fill="url(#b)" d="M395.643 592.631h150.498c8.551 0 15.545-6.994 15.545-15.543v-87.903c0-8.546-6.994-15.546-15.545-15.546H395.643c-8.553 0-15.551 7-15.551 15.546v87.903c0 8.549 6.998 15.543 15.551 15.543z"/><linearGradient id="c" gradientUnits="userSpaceOnUse" x1="362.319" y1="604.635" x2="608.408" y2="542.292"><stop offset="0" stop-color="#0072ff"/><stop offset="1" stop-color="#0037ff"/></linearGradient><path fill="url(#c)" d="M609.754 555.871l29.533 17.052c6.459 3.668 10.078 2.624 9.963-5.888v-68.074c-.051-7.421-2.766-10.039-10.082-5.68l-29.414 16.982-29.535 17.052c-6.404 3.758-7.314 7.415.115 11.571l29.42 16.985z"/><linearGradient id="d" gradientUnits="userSpaceOnUse" x1="326.217" y1="462.107" x2="572.298" y2="399.767"><stop offset="0" stop-color="#0072ff"/><stop offset="1" stop-color="#0037ff"/></linearGradient><path fill="url(#d)" d="M452.41 436.628c0 14.149-11.473 25.621-25.617 25.621-14.152 0-25.621-11.472-25.621-25.621 0-14.146 11.469-25.618 25.621-25.618 14.145 0 25.617 11.471 25.617 25.618z"/><linearGradient id="e" gradientUnits="userSpaceOnUse" x1="327.943" y1="468.924" x2="574.024" y2="406.584"><stop offset="0" stop-color="#0072ff"/><stop offset="1" stop-color="#0037ff"/></linearGradient><path fill="url(#e)" d="M536.91 425.337c0 20.385-16.523 36.912-36.908 36.912-20.387 0-36.916-16.527-36.916-36.912 0-20.388 16.529-36.912 36.916-36.912 20.385 0 36.908 16.524 36.908 36.912z"/></svg>