<svg xmlns="http://www.w3.org/2000/svg" viewBox="200 200 600 600"><linearGradient id="a" gradientUnits="userSpaceOnUse" x1="262.693" y1="500" x2="737.307" y2="500"><stop offset="0" stop-color="#0072ff"/><stop offset="1" stop-color="#0037ff"/></linearGradient><circle fill="none" stroke="url(#a)" stroke-width="20" stroke-miterlimit="10" cx="500" cy="499.999" r="227.307"/><linearGradient id="b" gradientUnits="userSpaceOnUse" x1="331.502" y1="528.617" x2="641.824" y2="443.625"><stop offset="0" stop-color="#0072ff"/><stop offset="1" stop-color="#0037ff"/></linearGradient><path fill="url(#b)" d="M458.744 523.453v30.666l-109-47.241v-26.223l109-47.238v30.878l-75.953 29.257 75.953 29.901z"/><linearGradient id="c" gradientUnits="userSpaceOnUse" x1="334.158" y1="538.323" x2="644.488" y2="453.329"><stop offset="0" stop-color="#0072ff"/><stop offset="1" stop-color="#0037ff"/></linearGradient><path fill="url(#c)" d="M526.137 432.766L495.798 557.69c-1.012 4.119-1.896 7.37-2.655 9.754-.757 2.384-1.914 4.246-3.466 5.581-1.555 1.334-3.81 2.003-6.771 2.003-7.368 0-11.053-3.177-11.053-9.537 0-1.658.721-5.812 2.168-12.456l30.229-124.928c1.587-6.647 3.105-11.195 4.551-13.653 1.445-2.454 4.262-3.682 8.451-3.682 3.611 0 6.373.863 8.287 2.599 1.914 1.732 2.875 4.119 2.875 7.149 0 2.241-.76 6.327-2.277 12.246z"/><linearGradient id="d" gradientUnits="userSpaceOnUse" x1="337.356" y1="549.979" x2="647.676" y2="464.987"><stop offset="0" stop-color="#0072ff"/><stop offset="1" stop-color="#0037ff"/></linearGradient><path fill="url(#d)" d="M650.412 506.878l-108.998 47.455v-30.662l76.17-29.904-76.17-29.472v-30.446l108.998 47.024v26.005z"/></svg>