<svg xmlns="http://www.w3.org/2000/svg" viewBox="0 0 1200 1200"><g fill="#231F20"><path d="M354.32 788.333v-3.062h11.395v3.062h-3.747v10.333h-3.878v-10.333h-3.77zM387.123 798.169v.497h-4.382l-2.63-3.941h-2.037v3.941h-3.922v-13.395h6.727c6.025.02 7.121 6.354 3.242 8.649l3.002 4.249zm-6.244-9.836c-.92-.019-1.885 0-2.805 0v3.349h2.805c2.125 0 2.234-3.329 0-3.349zM403.778 794.15v-8.879h3.747v8.937c0 2.946-2.914 4.649-6.07 4.649-3.133 0-6.091-1.703-6.091-4.649v-8.937h3.747v8.879c0 1.091 1.205 1.626 2.344 1.626 1.14 0 2.323-.535 2.323-1.626zM421.418 792.084v6.582h-4.053v-13.451h1.424l7.757 6.62v-6.563h4.01v13.414h-1.402l-7.736-6.602zM439.541 791.988c0-9.262 15.732-9.262 15.732 0 0 9.281-15.732 9.281-15.732 0zm11.723 0c0-4.822-7.691-4.822-7.691 0-.001 4.861 7.691 4.861 7.691 0zM474.975 794.208c0 2.927-2.762 4.611-5.917 4.611s-5.741-1.685-5.741-4.611v-1.741h3.703v1.684c0 1.053.898 1.607 2.038 1.607s1.907-.536 1.907-1.607v-5.836h-2.236v-3.043h6.246v8.936zM483.85 791.988c0-9.262 15.732-9.262 15.732 0 0 9.281-15.732 9.281-15.732 0zm11.722 0c0-4.822-7.691-4.822-7.691 0 0 4.861 7.691 4.861 7.691 0zM515.842 798.666h-3.878v-5.626l-5.149-7.252v-.517h4.229l2.782 4.459h.154l2.782-4.459h4.251v.517l-5.172 7.252v5.626zM528.225 791.988c0-9.262 15.732-9.262 15.732 0 0 9.281-15.732 9.281-15.732 0zm11.722 0c0-4.822-7.691-4.822-7.691 0 0 4.861 7.691 4.861 7.691 0zM564.754 798.666h-5.785v-13.395h5.785c9.991.04 9.991 13.357 0 13.395zm-1.863-3.119h1.863c4.886 0 4.886-7.156 0-7.156h-1.863v7.156zM587.762 795.662v3.004h-7.778v-3.004h1.95v-7.405h-1.797v-2.985h7.473v2.985h-1.797v7.405h1.949zM603.276 785.1c3.09.02 6.311 1.416 7.056 4.745h-3.856c-.636-1.147-1.644-1.607-3.199-1.607-2.476 0-3.813 1.685-3.813 3.731 0 2.22 1.49 3.674 3.813 3.674 1.577 0 2.586-.363 3.287-1.646h-3.265v-2.966h7.252c.088 1.34.088 2.621-.438 3.923-1.096 2.794-4.01 3.865-6.837 3.865-3.899 0-7.845-2.277-7.866-6.851.022-4.572 3.967-6.868 7.866-6.868zM626.198 795.662v3.004h-7.778v-3.004h1.95v-7.405h-1.797v-2.985h7.472v2.985h-1.797v7.405h1.95zM633.276 788.333v-3.062h11.394v3.062h-3.747v10.333h-3.878v-10.333h-3.769zM661.982 796.982h-6.048l-.898 1.684h-3.835v-.497l6.902-13.069h1.688l6.924 13.069v.497h-3.834l-.899-1.684zm-3.045-6.448l-1.731 3.521h3.506l-1.775-3.521zM678.68 795.585h5.565v3.081h-9.51v-13.395h3.944l.001 10.314zM702.982 794.322v4.344h-3.988v-13.395h9.554v3.062h-5.565v2.928h4.93v3.062h-4.931zM730.548 798.169v.497h-4.382l-2.63-3.941h-2.037v3.941h-3.922v-13.395h6.727c6.025.02 7.121 6.354 3.243 8.649l3.001 4.249zm-6.244-9.836c-.921-.019-1.885 0-2.805 0v3.349h2.805c2.125 0 2.234-3.329 0-3.349zM748.517 788.333h-5.675v1.895h5.215v3.043h-5.215v2.354h5.872v3.042h-9.772v-13.395h9.575v3.061zM767.69 788.333h-5.675v1.895h5.215v3.043h-5.215v2.354h5.872v3.042h-9.772v-13.395h9.575v3.061zM781.212 795.585h5.565v3.081h-9.509v-13.395h3.943l.001 10.314zM804.353 796.982h-6.048l-.898 1.684h-3.835v-.497l6.902-13.069h1.688l6.924 13.069v.497h-3.834l-.899-1.684zm-3.046-6.448l-1.731 3.521h3.506l-1.775-3.521zM821.182 792.084v6.582h-4.054v-13.451h1.424l7.757 6.62v-6.563h4.01v13.414h-1.402l-7.735-6.602zM847.193 785.119c3.177 0 6.617 1.512 7.209 5.09h-3.856c-.548-1.359-1.71-1.972-3.353-1.972-2.301 0-3.813 1.512-3.813 3.731 0 1.971 1.49 3.693 3.813 3.712 1.665 0 3.002-.727 3.418-2.162h3.856c-.57 3.789-4.01 5.281-7.274 5.281-3.9.02-7.845-2.276-7.866-6.831.022-4.553 3.966-6.849 7.866-6.849zM873.072 788.333h-5.675v1.895h5.215v3.043h-5.215v2.354h5.872v3.042h-9.772v-13.395h9.575v3.061zM895.62 798.169v.497h-4.382l-2.63-3.941h-2.037v3.941h-3.922v-13.395h6.727c6.025.02 7.121 6.354 3.243 8.649l3.001 4.249zm-6.244-9.836c-.921-.019-1.885 0-2.805 0v3.349h2.805c2.125 0 2.234-3.329 0-3.349z"/></g><g fill="#231F20"><path d="M415.295 688.867c0 1.135-1.277 2.411-3.121 2.411h-16.735v77.581c0 1.135-1.276 2.411-3.12 2.411h-15.602c-1.702 0-2.979-1.276-2.979-2.411v-77.581H356.86c-1.702 0-2.979-1.276-2.979-2.411v-14.325c0-1.276 1.276-2.553 2.979-2.553h55.313c1.844 0 3.121 1.276 3.121 2.553v14.325zM454.58 731.983h-7.232v36.876c0 1.135-1.277 2.411-3.121 2.411h-15.459c-1.702 0-2.836-1.276-2.836-2.411v-93.324c0-1.276 1.134-2.411 2.836-2.411h30.777c5.814 0 34.039.283 34.039 29.643 0 14.75-7.658 22.551-17.303 26.38 2.979 6.383 6.24 13.616 9.219 19.856l8.652 18.863c.709 1.702-.285 3.404-2.555 3.404h-17.02c-.85 0-2.41-.851-2.693-1.561l-17.304-37.726zm-7.232-18.863h12.197c3.545 0 12.623-.709 12.623-9.929 0-9.076-10.07-10.069-12.623-10.069h-12.197v19.998zM511.029 739.217v-62.831c0-1.276 1.275-2.553 2.979-2.553h15.459c1.701 0 2.979 1.276 2.979 2.553v62.548c1.277 8.367 8.367 13.332 16.311 13.332 8.084 0 16.168-4.255 16.168-13.049v-62.831c0-1.276 1.277-2.553 2.979-2.553h15.602c1.561 0 2.836 1.276 2.836 2.553v62.831c0 21.133-16.309 33.472-37.584 33.472-20.852-.001-37.729-12.907-37.729-33.472zM626.336 671.989c24.254 0 58.293 5.531 58.293 49.641 0 42.407-33.615 49.641-58.293 49.641h-15.744c-1.701 0-2.977-1.276-2.977-2.411v-94.317c0-1.276 1.275-2.553 2.977-2.553h15.744zm3.121 78.433c11.488.425 33.188-1.419 33.188-28.792 0-20.991-14.324-29.075-33.188-28.792v57.584zM727.6 691.278v60.703h8.084c1.703 0 2.979 1.276 2.979 2.411v14.467c0 1.135-1.275 2.411-2.979 2.411h-38.01c-1.703 0-2.979-1.276-2.979-2.411v-14.467c0-1.135 1.275-2.411 2.979-2.411h8.227v-60.703h-7.66c-1.701 0-2.979-1.276-2.979-2.411v-14.325c0-1.276 1.277-2.553 2.979-2.553h36.877c1.844 0 2.979 1.276 2.979 2.553v14.325c0 1.135-1.135 2.411-2.979 2.411H727.6zM838.084 712.694c1.701 0 2.836 1.276 2.836 2.411v54.037c0 1.277-1.135 2.554-2.836 2.554h-13.758c-1.561 0-3.121-.993-3.121-2.411-.141-2.837-.283-2.128-.283-5.106-6.523 5.957-14.467 8.51-24.395 8.51-26.947 0-48.08-18.722-48.08-51.059 0-29.501 22.551-51.059 50.207-51.059 13.617 0 26.664 5.956 35.459 14.608.709.992.709 2.979-.285 3.829l-11.063 10.921c-1.135.993-2.979.852-3.828-.142-5.248-5.248-12.482-8.51-20.283-8.51-15.602 0-28.365 11.204-28.365 30.352 0 21.274 12.764 30.352 28.365 30.352 7.943 0 15.176-3.546 20.566-9.219v-10.638h-13.9c-1.844 0-3.119-.992-3.119-2.411v-14.608c0-1.135 1.275-2.411 3.119-2.411h32.764zM886.873 691.278v60.703h8.084c1.701 0 2.979 1.276 2.979 2.411v14.467c0 1.135-1.277 2.411-2.979 2.411h-38.012c-1.701 0-2.979-1.276-2.979-2.411v-14.467c0-1.135 1.277-2.411 2.979-2.411h8.227v-60.703h-7.658c-1.703 0-2.979-1.276-2.979-2.411v-14.325c0-1.276 1.275-2.553 2.979-2.553h36.875c1.844 0 2.979 1.276 2.979 2.553v14.325c0 1.135-1.135 2.411-2.979 2.411h-7.516z"/></g><linearGradient id="a" gradientUnits="userSpaceOnUse" x1="759.133" y1="323.155" x2="419.132" y2="613.822"><stop offset="0" stop-color="#00aeef"/><stop offset="1" stop-color="#21409a"/></linearGradient><path fill="url(#a)" d="M636.963 315.215c-.211 0-.42-.215-.629-.215H453v37h.357c-.002 0 .152.04.152.168 0 20.2 15.49 36.392 36.49 36.729V390H584v127h.588C586.6 533 601 545.478 617 545.498V546h32V513.959c0-.413.031-.825.031-1.242s-.031-.83-.031-1.243V391.807c10 1.08 17.95 2.563 21.872 4.6 32.793 13.485 56.657 46.023 56.657 84.028 0 50.082-40.542 90.679-90.624 90.679-48.566 0-88.187-38.184-90.536-86.169.31-1.907.063-3.863.063-5.857 0-20.182-16.433-36.551-37.433-36.683V442h-38v38h.975c-.002 0-.006.29-.006.437 0 91.124 73.871 164.995 164.994 164.995 91.127 0 164.998-73.983 164.998-165.108.001-91.125-73.87-165.109-164.997-165.109z"/><linearGradient id="b" gradientUnits="userSpaceOnUse" x1="563.693" y1="511.967" x2="867.027" y2="514.634"><stop offset="0" stop-color="#00aeef"/><stop offset="1" stop-color="#21409a"/></linearGradient><path fill="url(#b)" d="M649 511.474v2.485c0-.413.031-.825.031-1.242s-.031-.83-.031-1.243z"/><linearGradient id="c" gradientUnits="userSpaceOnUse" x1="563.696" y1="511.614" x2="867.029" y2="514.281"><stop offset="0" stop-color="#00aeef"/><stop offset="1" stop-color="#21409a"/></linearGradient><path fill="url(#c)" d="M664.5 390c-5.251 0-10.423.338-15.5.979v.828c10 1.08 17.95 2.563 21.872 4.6 32.793 13.485 56.657 46.023 56.657 84.028 0 50.082-40.542 90.679-90.624 90.679-48.566 0-88.187-38.184-90.536-86.169.277-1.709.115-3.459.078-5.239A122.575 122.575 0 00542 512.5c0 67.655 54.845 122.5 122.5 122.5S787 580.155 787 512.5 732.155 390 664.5 390z"/></svg>