<svg xmlns="http://www.w3.org/2000/svg" viewBox="430 270 400 400"><linearGradient id="brand_a" gradientUnits="userSpaceOnUse" x1="759.133" y1="323.155" x2="419.132" y2="613.822"><stop offset="0" stop-color="#00aeef"/><stop offset="1" stop-color="#21409a"/></linearGradient><path fill="url(#brand_a)" d="M636.963 315.215c-.211 0-.42-.215-.629-.215H453v37h.357c-.002 0 .152.04.152.168 0 20.2 15.49 36.392 36.49 36.729V390H584v127h.588C586.6 533 601 545.478 617 545.498V546h32v-32.041c0-.413.031-.825.031-1.242s-.031-.83-.031-1.243V391.807c10 1.08 17.95 2.563 21.872 4.6 32.793 13.485 56.657 46.023 56.657 84.028 0 50.082-40.542 90.679-90.624 90.679-48.566 0-88.187-38.184-90.536-86.169.31-1.907.063-3.863.063-5.857 0-20.182-16.433-36.551-37.433-36.683V442h-38v38h.975c-.002 0-.006.29-.006.437 0 91.124 73.871 164.995 164.994 164.995 91.127 0 164.998-73.983 164.998-165.108.001-91.125-73.87-165.109-164.997-165.109z"/><linearGradient id="brand_ab" gradientUnits="userSpaceOnUse" x1="563.693" y1="511.967" x2="867.027" y2="514.634"><stop offset="0" stop-color="#00aeef"/><stop offset="1" stop-color="#21409a"/></linearGradient><path fill="url(#brand_ab)" d="M649 511.474v2.485c0-.413.031-.825.031-1.242s-.031-.83-.031-1.243z"/><linearGradient id="brand_ac" gradientUnits="userSpaceOnUse" x1="563.696" y1="511.614" x2="867.029" y2="514.281"><stop offset="0" stop-color="#00aeef"/><stop offset="1" stop-color="#21409a"/></linearGradient><path fill="url(#brand_ac)" d="M664.5 390c-5.251 0-10.423.338-15.5.979v.828c10 1.08 17.95 2.563 21.872 4.6 32.793 13.485 56.657 46.023 56.657 84.028 0 50.082-40.542 90.679-90.624 90.679-48.566 0-88.187-38.184-90.536-86.169.277-1.709.115-3.459.078-5.239A122.575 122.575 0 00542 512.5c0 67.655 54.845 122.5 122.5 122.5S787 580.155 787 512.5 732.155 390 664.5 390z"/></svg>