<svg xmlns="http://www.w3.org/2000/svg" viewBox="0 400 1200 360"><g fill="#231F20"><path d="M502.559 622.498v-3.284h12.227v3.284h-4.021v11.082h-4.162v-11.082h-4.044zM537.752 633.047v.533h-4.703l-2.821-4.228h-2.187v4.228h-4.209v-14.366h7.219c6.466.021 7.642 6.813 3.479 9.276l3.222 4.557zm-6.701-10.549c-.987-.021-2.022 0-3.01 0v3.591h3.01c2.28 0 2.398-3.57 0-3.591zM555.614 628.736v-9.522h4.021v9.584c0 3.161-3.128 4.987-6.514 4.987-3.362 0-6.537-1.826-6.537-4.987v-9.584h4.021v9.522c0 1.17 1.293 1.745 2.516 1.745s2.493-.575 2.493-1.745zM574.535 626.521v7.06h-4.35v-14.428h1.528l8.324 7.101v-7.039h4.303v14.387h-1.505l-8.3-7.081zM593.974 626.418c0-9.934 16.883-9.934 16.883 0-.001 9.953-16.883 9.953-16.883 0zm12.579 0c0-5.172-8.253-5.172-8.253 0 0 5.213 8.253 5.213 8.253 0zM631.986 628.798c0 3.141-2.963 4.946-6.349 4.946s-6.16-1.806-6.16-4.946v-1.867h3.974v1.806c0 1.129.964 1.725 2.187 1.725s2.046-.575 2.046-1.725v-6.259h-2.398v-3.264h6.701v9.584zM641.502 626.418c0-9.934 16.883-9.934 16.883 0 0 9.953-16.883 9.953-16.883 0zm12.579 0c0-5.172-8.253-5.172-8.253 0 0 5.213 8.253 5.213 8.253 0zM675.824 633.58h-4.162v-6.034l-5.525-7.778v-.554h4.538l2.986 4.782h.164l2.986-4.782h4.562v.554l-5.549 7.778v6.034zM689.102 626.418c0-9.934 16.883-9.934 16.883 0-.001 9.953-16.883 9.953-16.883 0zm12.579 0c0-5.172-8.253-5.172-8.253 0 0 5.213 8.253 5.213 8.253 0zM728.289 633.58h-6.208v-14.366h6.208c10.722.041 10.722 14.325 0 14.366zm-1.999-3.346h1.999c5.243 0 5.243-7.675 0-7.675h-1.999v7.675zM752.97 630.358v3.222h-8.348v-3.222h2.093v-7.942h-1.928v-3.202h8.019v3.202h-1.929v7.942h2.093zM769.612 619.029c3.315.021 6.771 1.519 7.571 5.09h-4.139c-.682-1.231-1.764-1.725-3.433-1.725-2.657 0-4.092 1.807-4.092 4.003 0 2.38 1.599 3.94 4.092 3.94 1.692 0 2.774-.391 3.526-1.766h-3.503v-3.181h7.783c.094 1.437.094 2.812-.471 4.207-1.176 2.996-4.303 4.146-7.336 4.146-4.186 0-8.418-2.442-8.441-7.347.025-4.904 4.258-7.367 8.443-7.367zM794.199 630.358v3.222h-8.348v-3.222h2.093v-7.942h-1.928v-3.202h8.019v3.202h-1.929v7.942h2.093zM801.789 622.498v-3.284h12.227v3.284h-4.021v11.082h-4.162v-11.082h-4.044zM832.586 631.774h-6.49l-.964 1.806h-4.115v-.533l7.407-14.018h1.811l7.43 14.018v.533h-4.114l-.965-1.806zm-3.269-6.917l-1.858 3.776h3.763l-1.905-3.776zM850.495 630.275h5.973v3.305h-10.205v-14.366h4.232v11.061zM876.563 628.921v4.659h-4.279v-14.366h10.252v3.284h-5.973v3.14h5.291v3.283h-5.291zM906.137 633.047v.533h-4.703l-2.821-4.228h-2.187v4.228h-4.209v-14.366h7.219c6.466.021 7.642 6.813 3.479 9.276l3.222 4.557zm-6.701-10.549c-.987-.021-2.022 0-3.01 0v3.591h3.01c2.28 0 2.398-3.57 0-3.591zM925.41 622.498h-6.09v2.031h5.596v3.264h-5.596v2.524h6.302v3.263h-10.487v-14.366h10.275v3.284zM945.978 622.498h-6.09v2.031h5.596v3.264h-5.596v2.524h6.302v3.263h-10.487v-14.366h10.275v3.284zM960.479 630.275h5.973v3.305h-10.205v-14.366h4.232v11.061zM985.304 631.774h-6.49l-.964 1.806h-4.115v-.533l7.407-14.018h1.811l7.43 14.018v.533h-4.114l-.965-1.806zm-3.269-6.917l-1.858 3.776h3.763l-1.905-3.776zM1003.354 626.521v7.06h-4.35v-14.428h1.528l8.324 7.101v-7.039h4.303v14.387h-1.505l-8.3-7.081zM1031.257 619.05c3.409 0 7.101 1.621 7.735 5.459h-4.138c-.588-1.457-1.834-2.114-3.598-2.114-2.469 0-4.092 1.622-4.092 4.003 0 2.113 1.599 3.961 4.092 3.981 1.787 0 3.221-.78 3.668-2.319h4.139c-.611 4.063-4.304 5.664-7.807 5.664-4.186.021-8.418-2.442-8.441-7.326.024-4.885 4.256-7.348 8.442-7.348zM1059.019 622.498h-6.09v2.031h5.596v3.264h-5.596v2.524h6.302v3.263h-10.487v-14.366h10.275v3.284zM1083.207 633.047v.533h-4.703l-2.821-4.228h-2.187v4.228h-4.209v-14.366h7.219c6.466.021 7.642 6.813 3.479 9.276l3.222 4.557zm-6.701-10.549c-.987-.021-2.022 0-3.01 0v3.591h3.01c2.28 0 2.398-3.57 0-3.591z"/></g><g fill="#231F20"><path d="M555.892 509.106c0 1.247-1.404 2.65-3.431 2.65h-18.396v85.276c0 1.248-1.403 2.65-3.43 2.65h-17.149c-1.87 0-3.273-1.403-3.273-2.65v-85.276h-18.552c-1.871 0-3.274-1.403-3.274-2.65V493.36c0-1.403 1.403-2.806 3.274-2.806h60.8c2.026 0 3.431 1.403 3.431 2.806v15.746zM599.073 556.499h-7.95v40.534c0 1.248-1.403 2.65-3.43 2.65H570.7c-1.87 0-3.117-1.403-3.117-2.65V494.451c0-1.403 1.247-2.65 3.117-2.65h33.83c6.392 0 37.415.311 37.415 32.583 0 16.213-8.417 24.788-19.019 28.997 3.274 7.016 6.859 14.967 10.134 21.826l9.51 20.734c.779 1.871-.313 3.742-2.808 3.742h-18.708c-.934 0-2.648-.935-2.96-1.715l-19.021-41.469zm-7.95-20.735h13.407c3.896 0 13.876-.779 13.876-10.914 0-9.976-11.07-11.068-13.876-11.068h-13.407v21.982zM661.121 564.45v-69.063c0-1.403 1.402-2.806 3.274-2.806h16.992c1.87 0 3.274 1.403 3.274 2.806v68.752c1.404 9.197 9.197 14.654 17.928 14.654 8.887 0 17.771-4.677 17.771-14.343v-69.063c0-1.403 1.404-2.806 3.274-2.806h17.149c1.715 0 3.117 1.403 3.117 2.806v69.063c0 23.229-17.927 36.792-41.313 36.792-22.914-.001-41.466-14.187-41.466-36.792zM787.865 490.554c26.66 0 64.075 6.08 64.075 54.564 0 46.613-36.95 54.564-64.075 54.564H770.56c-1.87 0-3.272-1.403-3.272-2.65V493.36c0-1.403 1.402-2.806 3.272-2.806h17.305zm3.431 86.212c12.628.467 36.479-1.56 36.479-31.648 0-23.073-15.745-31.959-36.479-31.648v63.296zM899.173 511.756v66.724h8.886c1.872 0 3.274 1.403 3.274 2.65v15.902c0 1.248-1.402 2.65-3.274 2.65H866.28c-1.872 0-3.274-1.403-3.274-2.65V581.13c0-1.247 1.402-2.65 3.274-2.65h9.042v-66.724h-8.42c-1.87 0-3.273-1.403-3.273-2.65V493.36c0-1.403 1.403-2.806 3.273-2.806h40.535c2.026 0 3.273 1.403 3.273 2.806v15.746c0 1.247-1.247 2.65-3.273 2.65h-8.264zM1020.616 535.296c1.87 0 3.117 1.403 3.117 2.65v59.396c0 1.404-1.247 2.807-3.117 2.807h-15.122c-1.716 0-3.431-1.091-3.431-2.65-.155-3.119-.312-2.339-.312-5.613-7.171 6.548-15.902 9.354-26.814 9.354-29.62 0-52.849-20.579-52.849-56.123 0-32.427 24.787-56.123 55.187-56.123 14.968 0 29.309 6.547 38.977 16.057.779 1.091.779 3.274-.313 4.209l-12.16 12.004c-1.247 1.092-3.273.936-4.208-.156-5.769-5.769-13.721-9.354-22.295-9.354-17.148 0-31.179 12.315-31.179 33.362 0 23.385 14.03 33.362 31.179 33.362 8.731 0 16.682-3.897 22.606-10.133v-11.693h-15.279c-2.026 0-3.429-1.091-3.429-2.65v-16.057c0-1.248 1.402-2.65 3.429-2.65h36.013zM1074.244 511.756v66.724h8.887c1.869 0 3.273 1.403 3.273 2.65v15.902c0 1.248-1.404 2.65-3.273 2.65h-41.782c-1.87 0-3.274-1.403-3.274-2.65V581.13c0-1.247 1.404-2.65 3.274-2.65h9.042v-66.724h-8.418c-1.871 0-3.273-1.403-3.273-2.65V493.36c0-1.403 1.402-2.806 3.273-2.806h40.533c2.026 0 3.273 1.403 3.273 2.806v15.746c0 1.247-1.247 2.65-3.273 2.65h-8.262z"/></g><linearGradient id="brandlong_a" gradientUnits="userSpaceOnUse" x1="406.132" y1="412.155" x2="66.131" y2="702.822"><stop offset="0" stop-color="#00aeef"/><stop offset="1" stop-color="#21409a"/></linearGradient><path fill="url(#brandlong_a)" d="M283.963 404.215c-.211 0-.42-.215-.629-.215H100v37h.357c-.002 0 .152.04.152.168 0 20.2 15.49 36.392 36.49 36.729V479H231v127h.588C233.6 622 248 634.478 264 634.498V635h32V602.959c0-.412.031-.825.031-1.242s-.031-.83-.031-1.243V480.807c10 1.08 17.95 2.563 21.872 4.6 32.793 13.485 56.657 46.023 56.657 84.028 0 50.081-40.542 90.679-90.624 90.679-48.566 0-88.187-38.184-90.536-86.169.31-1.907.063-3.863.063-5.857 0-20.182-16.433-36.551-37.433-36.683V531h-38v38h.975c-.002 0-.006.29-.006.437 0 91.124 73.871 164.995 164.994 164.995 91.127 0 164.998-73.983 164.998-165.108.001-91.125-73.87-165.109-164.997-165.109z"/><linearGradient id="brandlong_b" gradientUnits="userSpaceOnUse" x1="208.711" y1="600.949" x2="519.099" y2="603.678"><stop offset="0" stop-color="#00aeef"/><stop offset="1" stop-color="#21409a"/></linearGradient><path fill="url(#brandlong_b)" d="M296 600.474v2.485c0-.412.031-.825.031-1.242s-.031-.83-.031-1.243z"/><linearGradient id="brandlong_c" gradientUnits="userSpaceOnUse" x1="210.697" y1="600.614" x2="514.03" y2="603.281"><stop offset="0" stop-color="#00aeef"/><stop offset="1" stop-color="#21409a"/></linearGradient><path fill="url(#brandlong_c)" d="M311.5 479c-5.251 0-10.423.338-15.5.979v.828c10 1.08 17.95 2.563 21.872 4.6 32.793 13.485 56.657 46.023 56.657 84.028 0 50.081-40.542 90.679-90.624 90.679-48.566 0-88.187-38.184-90.536-86.169.277-1.709.115-3.459.078-5.239A122.575 122.575 0 00189 601.5c0 67.654 54.845 122.5 122.5 122.5S434 669.154 434 601.5c0-67.655-54.845-122.5-122.5-122.5z"/></svg>