<?xml version="1.0" encoding="utf-8"?>
<!-- Generator: Adobe Illustrator 16.0.0, SVG Export Plug-In . SVG Version: 6.00 Build 0)  -->
<!DOCTYPE svg PUBLIC "-//W3C//DTD SVG 1.1//EN" "http://www.w3.org/Graphics/SVG/1.1/DTD/svg11.dtd">
<svg version="1.1" id="Layer_1" xmlns="http://www.w3.org/2000/svg" xmlns:xlink="http://www.w3.org/1999/xlink" x="0px" y="0px"
	 width="1000px" height="1000px" viewBox="0 0 1000 1000" enable-background="new 0 0 1000 1000" xml:space="preserve">
<g>
	<linearGradient id="SVGID_1_" gradientUnits="userSpaceOnUse" x1="262.6934" y1="500" x2="737.3066" y2="500">
		<stop  offset="0" style="stop-color:#0072FF"/>
		<stop  offset="1" style="stop-color:#0037FF"/>
	</linearGradient>
	<path fill="none" stroke="url(#SVGID_1_)" stroke-width="20" stroke-miterlimit="10" d="M727.307,500
		c0,125.538-101.766,227.308-227.307,227.308c-125.537,0-227.307-101.77-227.307-227.308c0-125.54,101.77-227.308,227.307-227.308
		C625.541,272.692,727.307,374.46,727.307,500z"/>
	<g>
		<linearGradient id="SVGID_2_" gradientUnits="userSpaceOnUse" x1="419.4453" y1="559.7666" x2="512.0787" y2="534.3958">
			<stop  offset="0" style="stop-color:#0072FF"/>
			<stop  offset="1" style="stop-color:#0037FF"/>
		</linearGradient>
		<path fill="url(#SVGID_2_)" d="M481.441,485.241c-0.027,0.079-0.049,0.133-0.049,0.133
			c-106.734-7.911-43.482,132.428-43.482,132.428c1.979-31.625,43.482-48.446,43.482-48.446
			c45.758-27.667,19.801-69.057,17.902-71.956C493.018,495.15,486.406,491.415,481.441,485.241z"/>
		<linearGradient id="SVGID_3_" gradientUnits="userSpaceOnUse" x1="473.9033" y1="444.1948" x2="590.2828" y2="412.3203">
			<stop  offset="0" style="stop-color:#0072FF"/>
			<stop  offset="1" style="stop-color:#0037FF"/>
		</linearGradient>
		<path fill="url(#SVGID_3_)" d="M504.215,492.416c21.658-21.045,104.322-104.94,68.104-125.639
			c-36.379-20.788-78.83,85.947-88.766,112.649C488.656,484.201,495.682,489.42,504.215,492.416z"/>
	</g>
</g>
</svg>
