<?xml version="1.0" encoding="utf-8"?>
<!-- Generator: Adobe Illustrator 16.0.0, SVG Export Plug-In . SVG Version: 6.00 Build 0)  -->
<!DOCTYPE svg PUBLIC "-//W3C//DTD SVG 1.1//EN" "http://www.w3.org/Graphics/SVG/1.1/DTD/svg11.dtd">
<svg version="1.1" id="Layer_1" xmlns="http://www.w3.org/2000/svg" xmlns:xlink="http://www.w3.org/1999/xlink" x="0px" y="0px"
	 width="1000px" height="1000px" viewBox="0 0 1000 1000" enable-background="new 0 0 1000 1000" xml:space="preserve">
<g>
	<linearGradient id="SVGID_1_" gradientUnits="userSpaceOnUse" x1="262.6934" y1="500" x2="737.3066" y2="500">
		<stop  offset="0" style="stop-color:#0072FF"/>
		<stop  offset="1" style="stop-color:#0037FF"/>
	</linearGradient>
	<circle fill="none" stroke="url(#SVGID_1_)" stroke-width="20" stroke-miterlimit="10" cx="500" cy="499.999" r="227.307"/>
	<g>
		<linearGradient id="SVGID_2_" gradientUnits="userSpaceOnUse" x1="331.502" y1="528.6172" x2="641.8236" y2="443.625">
			<stop  offset="0" style="stop-color:#0072FF"/>
			<stop  offset="1" style="stop-color:#0037FF"/>
		</linearGradient>
		<path fill="url(#SVGID_2_)" d="M458.744,523.453v30.666l-109-47.241v-26.223l109-47.238v30.878l-75.953,29.257L458.744,523.453z"
			/>
		<linearGradient id="SVGID_3_" gradientUnits="userSpaceOnUse" x1="334.1577" y1="538.3232" x2="644.4878" y2="453.3287">
			<stop  offset="0" style="stop-color:#0072FF"/>
			<stop  offset="1" style="stop-color:#0037FF"/>
		</linearGradient>
		<path fill="url(#SVGID_3_)" d="M526.137,432.766L495.798,557.69c-1.012,4.119-1.896,7.37-2.655,9.754
			c-0.757,2.384-1.914,4.246-3.466,5.581c-1.555,1.334-3.81,2.003-6.771,2.003c-7.368,0-11.053-3.177-11.053-9.537
			c0-1.658,0.721-5.812,2.168-12.456l30.229-124.928c1.587-6.647,3.105-11.195,4.551-13.653c1.445-2.454,4.262-3.682,8.451-3.682
			c3.611,0,6.373,0.863,8.287,2.599c1.914,1.732,2.875,4.119,2.875,7.149C528.414,422.761,527.654,426.847,526.137,432.766z"/>
		<linearGradient id="SVGID_4_" gradientUnits="userSpaceOnUse" x1="337.3564" y1="549.9785" x2="647.6757" y2="464.987">
			<stop  offset="0" style="stop-color:#0072FF"/>
			<stop  offset="1" style="stop-color:#0037FF"/>
		</linearGradient>
		<path fill="url(#SVGID_4_)" d="M650.412,506.878l-108.998,47.455v-30.662l76.17-29.904l-76.17-29.472v-30.446l108.998,47.024
			V506.878z"/>
	</g>
</g>
</svg>
